<svg width="493" height="373" viewBox="0 0 493 373" fill="none" xmlns="http://www.w3.org/2000/svg">
<path d="M463.865 302L378.727 301.748L339.786 301.632L331.424 301.608L301.101 301.519L264.144 301.409L232.108 301.316L230.293 301.31L221.844 301.286L147.717 301.066L110.503 300.954L106.993 300.945L86.6017 300.884L33.4681 300.727C33.4681 300.727 -32.4455 150.824 56.6566 95.3249C171.442 23.8282 253.298 126.833 297.268 122.93C361.936 117.188 488.492 73.7326 463.865 302Z" fill="#E1E1F7"/>
<path d="M121.45 166.297V285.265C121.45 294.019 129.14 301.116 138.625 301.116H338.393C347.878 301.116 355.568 294.019 355.568 285.265V166.297H121.45Z" fill="#806AEA"/>
<path d="M297.161 130.874L246.384 100.15C241.445 97.1613 235.578 97.1613 230.638 100.15L179.859 130.864L121.208 166.343L179.859 201.733L238.51 237.123L297.161 201.695L355.813 166.343L297.161 130.874Z" fill="#413796"/>
<path d="M126.038 295.974C125.941 295.974 125.844 295.939 125.764 295.87C125.596 295.718 125.58 295.458 125.73 295.29L198.882 212.988C199.033 212.819 199.293 212.803 199.461 212.953C199.63 213.104 199.646 213.364 199.496 213.533L126.344 295.835C126.265 295.928 126.152 295.974 126.038 295.974Z" fill="#413796"/>
<path d="M350.983 295.974C350.871 295.974 350.756 295.928 350.677 295.837L277.525 213.534C277.374 213.366 277.389 213.106 277.56 212.955C277.729 212.803 277.988 212.819 278.14 212.99L351.292 295.292C351.443 295.46 351.427 295.72 351.257 295.871C351.177 295.941 351.08 295.974 350.983 295.974Z" fill="#413796"/>
<path d="M315.676 239.734C315.676 239.734 313.263 236.842 316.543 235.06C319.822 233.277 324.975 235.232 325.627 239.024C326.279 242.815 329.537 240.564 330.958 239.734C332.38 238.904 336.348 237.779 337.355 242.102C337.754 243.814 337.248 246.002 337.991 247.596C339.015 249.791 342.347 249.223 344.166 250.063C346.53 251.153 347.765 253.263 346.536 255.724C344.641 259.515 340.91 261.924 342.923 265.221C344.936 268.518 336.821 275.921 334.038 269.052C331.255 262.18 326.93 263.344 323.436 262.911C319.941 262.479 318.164 259.455 319.113 256.378C320.061 253.298 318.816 251.463 317.513 250.16C316.209 248.855 311.826 243.228 315.676 239.734Z" fill="url(#paint0_linear_4134_1039)"/>
<path d="M310.601 276.596C310.601 276.596 307.971 277.003 305.012 278.981C304.546 279.291 304.29 279.835 304.36 280.391C304.715 283.197 306.169 292.278 310.971 301.147C311.225 301.614 311.297 302.159 311.185 302.679L310.351 306.561L308.803 308.012H312.789L315.442 300.832L314.307 300.474C313.427 300.196 312.824 299.386 312.808 298.464L312.674 290.761C312.789 287.33 310.57 284.962 310.57 284.962L316.935 284.652L310.601 276.596Z" fill="url(#paint1_linear_4134_1039)"/>
<path d="M307.251 308.71C306.889 309.185 311.157 309.812 313.314 308.772C313.314 308.772 316.304 303.571 316.304 300.892C316.304 300.892 316.068 300.345 314.311 300.47C314.311 300.47 313.306 306.629 312.247 307.319C311.186 308.01 309.282 307.389 309.282 307.389C309.282 307.389 307.786 308.01 307.251 308.71Z" fill="#4042E2"/>
<path d="M316.134 285.073C316.101 285.015 309.282 284.253 309.282 284.253C309.282 284.253 309.505 286.326 308.807 289.179C308.109 292.031 298.1 304.397 298.1 304.397L299.149 307.725C295.904 308.856 292.712 309.036 289.57 308.301L296.075 304.397C296.075 304.397 302.163 283.651 305.892 279.949L312.727 277.585L316.134 285.073Z" fill="url(#paint2_linear_4134_1039)"/>
<path d="M331.424 273C331.424 273 335.353 278.843 335.675 281.508C335.997 284.173 334.599 285.257 330.478 285.435C326.357 285.614 315.352 285.612 315.352 285.612L305.962 277.587C305.962 277.587 312.806 275.145 314.584 274.455C316.363 273.762 331.424 273 331.424 273Z" fill="url(#paint3_linear_4134_1039)"/>
<path d="M298.753 306.604C298.753 306.604 299.884 307.698 299.12 308.916C299.12 308.916 290.167 310.502 287.737 309.782C287.737 309.782 288.242 308.63 290.978 307.319L290.776 307.475C290.52 307.67 290.672 308.08 290.992 308.06C292.795 307.957 296.529 307.628 298.753 306.604Z" fill="url(#paint4_linear_4134_1039)"/>
<path d="M320.8 272.226C320.8 272.226 316.225 267.87 313.974 264.985C312.756 263.425 312.374 261.371 312.938 259.475C313.966 256.011 315.793 252.423 315.96 251.866C316.216 251.011 321.343 251.046 321.343 251.046C321.343 251.046 331.436 257.597 335.402 268.693L330.949 270.079C330.949 270.079 328.314 265.658 325.711 262.847C325.711 262.847 330.216 268.799 330.375 271.235L320.8 272.226Z" fill="#61C4D1"/>
<path d="M315.339 247.086C315.393 247.264 316.731 251.702 316.836 251.795C316.941 251.886 319.772 252.039 321.105 251.128L318.843 246.396L315.339 247.086Z" fill="url(#paint5_linear_4134_1039)"/>
<path d="M317.539 237.763C317.539 237.763 315.122 238.783 313.479 242.276C311.837 245.769 313.062 247.381 314.604 247.602C316.146 247.823 318.45 247.79 320.89 245.532C323.328 243.279 320.68 236.553 317.539 237.763Z" fill="url(#paint6_linear_4134_1039)"/>
<path d="M319.248 243.67C319.248 243.67 321.071 238.56 316.541 238.5L315.474 239.245C315.474 239.245 313.812 236.411 316.541 235.059C319.269 233.708 323.34 234.912 324.5 238.587C325.662 242.262 324.981 244.636 323.049 246.395C321.118 248.154 320.322 246.161 320.322 246.161C320.322 246.161 321.374 244.516 320.947 243.635C320.518 242.755 319.531 243.818 319.531 243.818L319.248 243.67Z" fill="url(#paint7_linear_4134_1039)"/>
<path d="M318.768 244.485C318.768 244.485 319.689 241.853 320.92 242.901C322.15 243.948 319.922 245.333 319.049 245.781L318.768 244.485Z" fill="url(#paint8_linear_4134_1039)"/>
<path d="M311.481 272.55L314.842 269.311L319.491 271.276C319.491 271.276 324.119 271.994 326.768 271.276C329.417 270.558 329.417 270.558 329.417 270.558L335.402 268.695L336.343 271.352C336.581 272.026 336.341 272.775 335.759 273.19C335.241 273.559 334.634 273.962 334.248 274.133C333.461 274.478 314.817 273.894 314.817 273.894L311.481 272.55Z" fill="url(#paint9_linear_4134_1039)"/>
<path d="M335.896 243.979L335.737 243.961C335.874 242.691 335.663 241.843 335.091 241.372C333.956 240.437 331.602 241.168 329.525 241.814C328.472 242.142 327.479 242.45 326.783 242.487C326.249 242.516 325.823 242.375 325.514 242.066C324.95 241.502 324.991 240.591 324.993 240.552L325.152 240.56C325.152 240.569 325.113 241.44 325.627 241.954C325.902 242.227 326.288 242.353 326.773 242.328C327.45 242.291 328.433 241.987 329.476 241.663C331.592 241.006 333.989 240.261 335.192 241.25C335.81 241.758 336.041 242.652 335.896 243.979Z" fill="#BDD0FB"/>
<path d="M340.844 263.121C340.47 261.583 341.48 260.284 342.65 258.779C343.491 257.696 344.446 256.469 344.958 254.995C345.202 254.291 345.15 253.645 344.8 253.075C343.71 251.298 340.095 250.781 340.061 250.775L340.082 250.618C340.233 250.639 343.807 251.151 344.936 252.991C345.31 253.604 345.369 254.295 345.109 255.047C344.589 256.546 343.625 257.784 342.776 258.878C341.631 260.35 340.642 261.622 340.999 263.084L340.844 263.121Z" fill="#BDD0FB"/>
<path d="M324.557 289.363H322.786V308.508H324.557V289.363Z" fill="#252D2F"/>
<path d="M331.423 308.877H315.918C315.918 308.241 316.434 307.725 317.07 307.725H330.271C330.908 307.725 331.423 308.241 331.423 308.877Z" fill="#252D2F"/>
<path d="M333.726 288.697C333.726 289.745 332.869 290.602 331.822 290.602H316.134C315.087 290.602 314.229 289.745 314.229 288.697V286.975C314.229 285.928 315.087 285.071 316.134 285.071H331.822C332.869 285.071 333.726 285.928 333.726 286.975V288.697Z" fill="#252D2F"/>
<path d="M324.199 274.079C324.184 274.079 324.17 274.08 324.155 274.08L304.658 274.059C304.177 274.059 303.785 273.667 303.787 273.186C303.787 272.703 304.181 272.306 304.66 272.316L324.157 272.337C324.638 272.337 325.029 272.729 325.027 273.21C325.027 273.673 324.661 274.055 324.199 274.079Z" fill="url(#paint10_linear_4134_1039)"/>
<path d="M287.132 256.376H303.368C304.567 256.376 305.657 257.066 306.167 258.15L313.672 274.067H293.495C292.723 274.067 292.029 273.596 291.746 272.878L285.926 258.15C285.59 257.299 286.218 256.376 287.132 256.376Z" fill="url(#paint11_linear_4134_1039)"/>
<path d="M351.451 274.79C351.497 274.569 351.433 274.34 351.282 274.168C351.129 273.993 350.902 273.894 350.662 273.894H269.304C268.988 273.894 268.695 274.045 268.524 274.294C268.354 274.542 268.33 274.856 268.464 275.126L269.347 276.914C269.548 277.323 269.987 277.585 270.468 277.585H350.105C350.553 277.585 350.937 277.288 351.022 276.875L351.451 274.79Z" fill="url(#paint12_linear_4134_1039)"/>
<path d="M273.864 312.488C273.769 312.488 273.674 312.469 273.583 312.428C273.22 312.269 273.053 311.838 273.208 311.468L288.182 275.853C288.338 275.483 288.758 275.312 289.121 275.471C289.484 275.63 289.651 276.06 289.495 276.431L274.521 312.046C274.403 312.323 274.141 312.488 273.864 312.488Z" fill="url(#paint13_linear_4134_1039)"/>
<path d="M290.733 312.488C290.456 312.488 290.194 312.323 290.078 312.046L275.104 276.431C274.949 276.06 275.116 275.63 275.478 275.471C275.841 275.312 276.26 275.483 276.417 275.853L291.391 311.468C291.546 311.838 291.379 312.269 291.017 312.428C290.924 312.469 290.827 312.488 290.733 312.488Z" fill="url(#paint14_linear_4134_1039)"/>
<path d="M332.83 312.488C332.735 312.488 332.64 312.469 332.549 312.428C332.186 312.269 332.019 311.838 332.174 311.468L347.148 275.853C347.303 275.483 347.724 275.312 348.087 275.471C348.45 275.63 348.616 276.06 348.461 276.431L333.487 312.046C333.369 312.323 333.105 312.488 332.83 312.488Z" fill="url(#paint15_linear_4134_1039)"/>
<path d="M349.696 312.488C349.419 312.488 349.157 312.323 349.041 312.046L334.067 276.431C333.912 276.06 334.078 275.63 334.441 275.471C334.804 275.312 335.223 275.483 335.38 275.853L350.354 311.468C350.509 311.838 350.342 312.269 349.98 312.428C349.886 312.469 349.791 312.488 349.696 312.488Z" fill="url(#paint16_linear_4134_1039)"/>
<mask id="mask0_4134_1039" style="mask-type:luminance" maskUnits="userSpaceOnUse" x="131" y="81" width="210" height="157">
<path d="M131.169 172.169L238.658 237.052L340.015 176.004V81.4873H139.609L131.169 172.169Z" fill="white"/>
</mask>
<g mask="url(#mask0_4134_1039)">
<path d="M311.335 108.728H147.46C144.57 108.728 142.177 111.235 142.177 114.125V247.115H334.844V132.607L311.335 108.728Z" fill="#CDCDFB"/>
<path d="M334.752 132.607L313.248 132.793C312.678 132.799 312.232 132.576 311.827 132.175C311.422 131.771 311.381 131.224 311.381 130.656V108.89L334.752 132.607Z" fill="#CCCCF0"/>
<path d="M281.014 171.285C281.014 176.285 280.215 180.86 278.619 185.008C277.023 189.156 274.765 192.413 271.849 194.773C268.932 197.133 265.547 198.314 261.694 198.314C259.124 198.314 256.851 197.698 254.871 196.466C252.893 195.233 251.469 193.611 250.6 191.596H249.767C246.018 196.074 241.243 198.314 235.444 198.314C229.298 198.314 224.456 196.466 220.914 192.768C217.373 189.069 215.602 184.009 215.602 177.586C215.602 170.261 217.928 164.357 222.58 159.879C227.233 155.401 233.309 153.161 240.808 153.161C243.795 153.161 247.084 153.448 250.678 154.02C254.272 154.593 257.231 155.279 259.557 156.078L258.358 181.544C258.358 186.37 259.677 188.784 262.316 188.784C264.539 188.784 266.31 187.161 267.628 183.914C268.947 180.668 269.607 176.424 269.607 171.18C269.607 165.591 268.443 160.651 266.118 156.363C263.792 152.075 260.519 148.803 256.3 146.546C252.082 144.289 247.265 143.162 241.848 143.162C234.835 143.162 228.742 144.603 223.569 147.485C218.397 150.367 214.429 154.525 211.669 159.957C208.909 165.391 207.528 171.667 207.528 178.783C207.528 188.365 210.088 195.717 215.21 200.837C220.332 205.959 227.753 208.519 237.475 208.519C241.156 208.519 245.199 208.112 249.609 207.296C254.02 206.479 258.358 205.29 262.629 203.729V213.729C255.199 216.888 246.953 218.468 237.892 218.468C224.698 218.468 214.413 214.997 207.034 208.052C199.656 201.109 195.968 191.457 195.968 179.097C195.968 170.521 197.851 162.736 201.619 155.739C205.385 148.743 210.75 143.257 217.712 139.281C224.673 135.305 232.684 133.317 241.747 133.317C249.384 133.317 256.207 134.881 262.214 138.005C268.22 141.129 272.855 145.574 276.119 151.336C279.383 157.102 281.014 163.75 281.014 171.285ZM227.685 177.794C227.685 185.119 230.671 188.782 236.643 188.782C239.767 188.782 242.145 187.681 243.778 185.475C245.409 183.27 246.4 179.686 246.747 174.722L247.424 163.211C245.653 162.829 243.657 162.639 241.435 162.639C237.095 162.639 233.718 163.993 231.305 166.702C228.891 169.41 227.685 173.106 227.685 177.794Z" fill="#413796"/>
</g>
<path d="M346.996 107.874C346.761 87.6736 363.007 71.0472 383.208 70.8145C390.659 70.7291 397.845 72.8664 404.01 77.0011L406.095 74.8891C406.362 74.6176 406.758 74.509 407.129 74.604C407.497 74.701 407.79 74.988 407.891 75.3565L411.535 88.5987C411.636 88.9672 411.533 89.3648 411.265 89.6363C410.998 89.9078 410.6 90.0164 410.232 89.9194L396.943 86.4537C396.574 86.3568 396.281 86.0678 396.181 85.6993C396.08 85.3308 396.183 84.9313 396.45 84.6598L398.797 82.2782C394.123 79.4525 388.774 77.996 383.295 78.0581C367.098 78.2462 354.074 91.5679 354.261 107.756C354.449 123.934 367.776 136.944 383.974 136.756C391.689 136.667 398.95 133.587 404.421 128.087C409.879 122.596 412.929 115.331 413.007 107.628C413.013 107.069 413.449 106.443 414.064 106.435L419.184 106.375C419.514 106.371 419.754 106.616 419.911 106.777L419.954 106.819C420.19 107.054 420.274 107.486 420.272 107.719C420.202 117.346 416.412 126.421 409.599 133.273C402.777 140.132 393.706 143.972 384.057 144.085C363.855 144.319 347.228 128.075 346.996 107.874ZM410.778 88.8799C410.778 88.8567 410.775 88.8334 410.769 88.8101L407.125 75.5679C407.097 75.4729 407.022 75.3973 406.927 75.372C406.83 75.3468 406.727 75.3759 406.657 75.4457L404.109 78.029L403.835 77.8428C397.744 73.679 390.615 71.5223 383.216 71.6077C363.451 71.8365 347.558 88.1022 347.787 107.865C348.016 127.629 364.281 143.522 384.044 143.293C393.485 143.185 402.358 139.428 409.033 132.716C415.699 126.014 419.407 117.135 419.475 107.717C419.482 107.599 419.424 107.428 419.387 107.382L419.343 107.337C419.294 107.289 419.209 107.201 419.162 107.172L414.072 107.23C413.963 107.232 413.8 107.448 413.798 107.638C413.717 115.549 410.585 123.009 404.982 128.647C399.363 134.297 391.906 137.46 383.982 137.551C367.348 137.743 353.657 124.382 353.465 107.766C353.273 91.1413 366.649 77.4588 383.284 77.2668C389.082 77.199 394.738 78.7912 399.639 81.8671L400.057 82.1289L397.015 85.2184C396.945 85.2901 396.918 85.3948 396.945 85.4899C396.972 85.5868 397.048 85.6625 397.143 85.6857L410.433 89.1514C410.53 89.1767 410.633 89.1476 410.701 89.0777C410.751 89.0273 410.778 88.9536 410.778 88.8799Z" fill="#806AEA"/>
<path d="M372.438 114.658H361.88V112.438L365.671 108.605C366.794 107.455 367.527 106.658 367.872 106.214C368.216 105.77 368.464 105.359 368.617 104.981C368.768 104.602 368.844 104.209 368.844 103.803C368.844 103.198 368.677 102.746 368.344 102.45C368.01 102.153 367.564 102.006 367.005 102.006C366.42 102.006 365.851 102.139 365.301 102.409C364.75 102.679 364.174 103.061 363.575 103.555L361.839 101.499C362.584 100.865 363.198 100.419 363.687 100.157C364.176 99.8955 364.709 99.6938 365.289 99.5522C365.867 99.4106 366.515 99.3408 367.23 99.3408C368.173 99.3408 369.007 99.5134 369.73 99.8567C370.454 100.202 371.014 100.683 371.414 101.303C371.813 101.924 372.013 102.632 372.013 103.431C372.013 104.127 371.891 104.779 371.646 105.388C371.402 105.997 371.024 106.623 370.51 107.263C369.996 107.903 369.092 108.817 367.799 110L365.857 111.829V111.974H372.438V114.658Z" fill="#806AEA"/>
<path d="M384.854 111.528H383.037V114.658H379.918V111.528H373.472V109.307L380.093 99.5562H383.037V109.049H384.854V111.528ZM379.916 109.049V106.488C379.916 106.061 379.934 105.44 379.969 104.628C380.004 103.815 380.031 103.344 380.052 103.212H379.969C379.715 103.776 379.408 104.327 379.049 104.864L376.282 109.048H379.916V109.049Z" fill="#806AEA"/>
<path d="M393.82 99.5562L388.19 114.658H385.329L390.959 99.5562H393.82Z" fill="#806AEA"/>
<path d="M396.27 114.658L401.94 102.262H394.493V99.5774H405.329V101.581L399.617 114.658H396.27Z" fill="#806AEA"/>
<path d="M111.324 130.949C110.789 130.949 110.311 130.611 110.131 130.107L108.366 125.121C105.934 124.529 103.611 123.587 101.445 122.317L96.7066 124.673C96.2237 124.913 95.6419 124.82 95.2559 124.442L90.3609 119.627C89.9769 119.248 89.8741 118.669 90.1068 118.182L92.3856 113.405C91.0804 111.26 90.101 108.952 89.4688 106.53L84.4555 104.846C83.9454 104.676 83.5982 104.199 83.5944 103.66L83.5381 96.7902C83.5342 96.2511 83.8717 95.7682 84.3798 95.5878L89.366 93.823C89.9595 91.391 90.9001 89.0676 92.1704 86.9013L89.814 82.1614C89.5735 81.6804 89.6666 81.0967 90.0448 80.7127L94.8603 75.8176C95.2385 75.4336 95.8184 75.3309 96.3052 75.5636L101.082 77.8424C103.227 76.5372 105.535 75.5578 107.957 74.9255L109.64 69.9103C109.813 69.4002 110.29 69.053 110.829 69.0492L117.697 68.9929C117.701 68.9929 117.702 68.9929 117.706 68.9929C118.242 68.9929 118.719 69.3304 118.899 69.8346L120.664 74.8208C123.094 75.4123 125.419 76.3549 127.586 77.6252L132.324 75.2688C132.806 75.0303 133.388 75.1214 133.772 75.4996L138.669 80.317C139.053 80.6952 139.156 81.2751 138.923 81.7619L136.645 86.5386C137.95 88.6836 138.929 90.9934 139.561 93.4138L144.575 95.0972C145.085 95.2678 145.432 95.7469 145.436 96.2841L145.492 103.153C145.496 103.693 145.158 104.175 144.65 104.356L139.664 106.121C139.073 108.553 138.13 110.876 136.86 113.042L139.216 117.782C139.457 118.265 139.364 118.847 138.985 119.231L134.168 124.128C133.79 124.512 133.21 124.615 132.723 124.382L127.946 122.103C125.801 123.408 123.494 124.388 121.071 125.02L119.388 130.035C119.217 130.545 118.74 130.891 118.201 130.896L111.332 130.953C111.33 130.949 111.328 130.949 111.324 130.949ZM101.518 120.509L101.893 120.736C104.144 122.107 106.584 123.096 109.144 123.674L109.571 123.771L111.549 129.36L117.957 129.308L119.844 123.686L120.268 123.583C122.821 122.962 125.243 121.934 127.471 120.526L127.842 120.292L133.198 122.848L137.692 118.281L135.05 112.967L135.277 112.592C136.648 110.341 137.638 107.901 138.215 105.341L138.312 104.914L143.902 102.936L143.849 96.5284L138.227 94.6414L138.124 94.2147C137.506 91.6644 136.476 89.2402 135.068 87.0118L134.833 86.6414L137.387 81.2867L132.82 76.7932L127.508 79.4366L127.134 79.2096C124.882 77.8385 122.442 76.8494 119.882 76.2734L119.456 76.1764L117.476 70.5852L111.068 70.6375L109.181 76.2598L108.754 76.3626C106.204 76.9813 103.78 78.0111 101.551 79.4191L101.181 79.6538L95.8261 77.0996L91.3325 81.6669L93.974 86.9808L93.7471 87.3551C92.3759 89.6067 91.3869 92.0465 90.8089 94.6065L90.7119 95.0332L85.1226 97.0133L85.175 103.421L90.7973 105.308L90.9001 105.735C91.5207 108.287 92.5485 110.709 93.9565 112.938L94.1912 113.308L91.637 118.665L96.2062 123.158L101.518 120.509ZM114.415 117.451C109.83 117.451 105.513 115.684 102.24 112.464C98.933 109.212 97.0906 104.866 97.0518 100.227C97.013 95.5878 98.7837 91.2126 102.038 87.9059C105.29 84.5992 109.637 82.7568 114.276 82.7199C115.509 82.7103 116.75 82.8305 117.955 83.0787C118.383 83.168 118.659 83.5869 118.571 84.0174C118.482 84.446 118.061 84.7195 117.635 84.6341C116.541 84.4072 115.42 84.2928 114.291 84.3064C110.077 84.3413 106.126 86.015 103.171 89.0191C100.215 92.0232 98.6053 95.999 98.6402 100.215C98.6751 104.43 100.349 108.38 103.353 111.336C106.357 114.291 110.323 115.913 114.549 115.866C118.763 115.831 122.714 114.158 125.67 111.153C128.625 108.149 130.235 104.174 130.2 99.9573C130.177 97.0967 129.38 94.302 127.898 91.8739C127.669 91.4996 127.787 91.0128 128.162 90.7839C128.536 90.557 129.025 90.6734 129.252 91.0477C130.885 93.7202 131.761 96.7961 131.786 99.9456C131.825 104.585 130.054 108.96 126.8 112.267C123.548 115.573 119.202 117.416 114.563 117.454C114.514 117.451 114.466 117.451 114.415 117.451Z" fill="#806AEA"/>
<path d="M114.502 106.865C113.294 106.865 112.101 106.545 111.03 105.917C109.442 104.986 108.311 103.493 107.846 101.712C107.38 99.932 107.636 98.076 108.567 96.4876C109.498 94.8993 110.992 93.7686 112.772 93.3032C116.449 92.3432 120.221 94.5541 121.183 98.2292C121.649 100.01 121.393 101.866 120.462 103.454C119.531 105.042 118.037 106.173 116.257 106.638C115.675 106.792 115.086 106.865 114.502 106.865ZM113.172 94.8372C111.8 95.196 110.65 96.0648 109.935 97.2886C109.219 98.5104 109.021 99.9398 109.38 101.311C109.739 102.682 110.61 103.832 111.831 104.548C113.055 105.263 114.483 105.461 115.854 105.102C117.225 104.744 118.375 103.873 119.091 102.651C119.806 101.429 120.004 99.9999 119.645 98.6287C118.908 95.8011 116.003 94.1002 113.172 94.8372Z" fill="#806AEA"/>
<path d="M84.5381 156.743C84.2821 156.743 84.0339 156.623 83.8768 156.41L82.4358 154.455C81.2897 154.509 80.1454 154.404 79.0244 154.146L77.2557 155.814C77.0017 156.055 76.6215 156.107 76.3112 155.944L73.3847 154.412C73.0744 154.251 72.9018 153.91 72.9541 153.563L73.3188 151.158C72.4693 150.384 71.7323 149.501 71.1234 148.53L68.6952 148.46C68.3442 148.448 68.0397 148.218 67.935 147.884L66.9498 144.731C66.8451 144.397 66.9634 144.032 67.2465 143.825L69.2014 142.384C69.1471 141.24 69.2518 140.093 69.5098 138.974L67.8419 137.206C67.6014 136.952 67.5491 136.571 67.712 136.261L69.246 133.335C69.4089 133.024 69.7522 132.852 70.0974 132.904L72.4984 133.269C73.2722 132.419 74.1546 131.682 75.1263 131.073L75.198 128.645C75.2077 128.296 75.4385 127.99 75.7721 127.885L78.9255 126.9C79.2572 126.795 79.6218 126.913 79.8312 127.196L81.2722 129.153C82.4164 129.101 83.5626 129.204 84.6817 129.462L86.4504 127.794C86.7045 127.553 87.0846 127.503 87.3929 127.662L90.3214 129.196C90.6317 129.359 90.8043 129.7 90.752 130.047L90.3874 132.45C91.2368 133.224 91.9738 134.107 92.5828 135.078L95.0109 135.15C95.3619 135.16 95.6664 135.39 95.7711 135.726L96.7563 138.877C96.8611 139.213 96.7408 139.576 96.4596 139.783L94.5047 141.224C94.559 142.37 94.4543 143.515 94.1963 144.635L95.8642 146.404C96.1047 146.658 96.1571 147.038 95.9941 147.349L94.462 150.275C94.2991 150.586 93.9578 150.76 93.6126 150.706L91.2077 150.341C90.4339 151.191 89.5515 151.928 88.5798 152.537L88.51 154.965C88.5003 155.314 88.2695 155.618 87.936 155.725L84.7825 156.71C84.703 156.731 84.6196 156.743 84.5381 156.743ZM83.008 153.221L84.6797 155.49L87.3309 154.662L87.4123 151.846L87.6955 151.679C88.7641 151.049 89.7163 150.252 90.5309 149.311L90.7461 149.063L93.5331 149.486L94.8208 147.025L92.8853 144.973L92.9667 144.655C93.2771 143.451 93.3895 142.213 93.2984 140.976L93.2751 140.648L95.5442 138.976L94.7161 136.325L91.9001 136.244L91.7333 135.961C91.103 134.892 90.3059 133.94 89.3653 133.125L89.1171 132.91L89.5398 130.123L87.0788 128.833L85.0269 130.769L84.7088 130.687C83.5044 130.377 82.2671 130.265 81.0298 130.356L80.702 130.379L79.0303 128.11L76.3791 128.938L76.2977 131.754L76.0145 131.921C74.9478 132.551 73.9937 133.346 73.1791 134.289L72.9638 134.537L70.175 134.114L68.8872 136.575L70.8228 138.627L70.7413 138.945C70.431 140.15 70.3185 141.387 70.4097 142.624L70.4329 142.952L68.1638 144.624L68.992 147.275L71.808 147.356L71.9748 147.64C72.6051 148.708 73.4021 149.66 74.3428 150.475L74.591 150.69L74.1682 153.477L76.6293 154.767L78.6792 152.831L78.9973 152.913C80.2017 153.223 81.4409 153.336 82.6763 153.244L83.008 153.221ZM76.864 154.887C76.864 154.889 76.864 154.889 76.864 154.887ZM69.9171 134.077C69.919 134.077 69.919 134.077 69.9171 134.077ZM79.2843 128.032C79.2824 128.032 79.2824 128.032 79.2843 128.032ZM81.8327 150.432C78.1847 150.432 74.7946 148.082 73.6504 144.42C72.2424 139.913 74.7636 135.098 79.2708 133.69C79.8545 133.507 80.4557 133.387 81.0589 133.333C81.3828 133.306 81.6756 133.544 81.7047 133.872C81.7338 134.2 81.4933 134.489 81.1655 134.518C80.6458 134.564 80.128 134.669 79.6237 134.826C75.743 136.04 73.5709 140.185 74.7849 144.067C75.999 147.948 80.1435 150.12 84.0261 148.908C87.9088 147.694 90.079 143.549 88.8649 139.667C88.4654 138.391 87.7304 137.248 86.7374 136.364C86.4911 136.145 86.4698 135.769 86.6889 135.524C86.9081 135.28 87.2843 135.257 87.5287 135.476C88.6826 136.504 89.536 137.83 89.9995 139.312C91.4075 143.819 88.8863 148.635 84.3791 150.043C83.5355 150.306 82.6783 150.432 81.8327 150.432Z" fill="#806AEA"/>
<path d="M388.131 209.661C388.131 209.661 383.556 213.999 382.043 221.712C380.53 229.425 376.939 210.809 376.939 210.809H373.31C373.31 210.809 371.941 229.989 382.187 231.516C384.139 231.807 386.1 231.033 387.322 229.481C389.194 227.105 392.112 222.878 392.818 218.85C392.213 212.5 388.131 209.661 388.131 209.661Z" fill="#61C4D1"/>
<path d="M411.377 298.479C411.377 298.423 411.373 298.365 411.359 298.307C410.5 294.903 406.992 293.16 406.992 293.16L405.304 293.292C404.335 296.29 403.708 297.754 403.863 298.574C403.867 298.598 403.875 298.619 403.881 298.642C405.271 298.766 408.138 298.848 411.377 298.479Z" fill="#61C4D1"/>
<path d="M403.879 298.642C403.955 298.915 404.156 299.129 404.414 299.183C406.394 299.6 409.544 299.264 410.865 299.092C411.156 299.053 411.369 298.783 411.375 298.479C408.138 298.847 405.271 298.766 403.879 298.642Z" fill="url(#paint17_linear_4134_1039)"/>
<path d="M408.38 290.533L407.641 294.092C407.587 294.352 407.387 294.548 407.145 294.571C406.848 294.598 406.425 294.616 406.001 294.554C405.619 294.498 405.353 294.11 405.421 293.695L405.935 290.535H408.38V290.533Z" fill="url(#paint18_linear_4134_1039)"/>
<path d="M389.537 298.613C391.34 298.563 392.271 298.349 392.754 298.154C392.756 298.332 392.754 298.514 392.748 298.704C392.743 298.906 392.593 299.067 392.409 299.067L382.51 299.003C382.194 299.001 382.01 298.635 382.146 298.346C383.443 298.45 386.75 298.691 389.537 298.613Z" fill="url(#paint19_linear_4134_1039)"/>
<path d="M382.146 298.343C382.157 298.318 382.167 298.293 382.184 298.268C383.059 297.046 385.285 294.614 389.684 293.559L391.794 293.493C391.794 293.493 392.735 295.126 392.752 298.153C392.269 298.351 391.338 298.562 389.535 298.613C386.75 298.69 383.443 298.45 382.146 298.343Z" fill="#61C4D1"/>
<path d="M392.188 290.295C392.164 290.452 391.875 292.843 391.763 293.77C391.736 293.991 391.577 294.162 391.375 294.185C391.016 294.228 390.434 294.267 389.924 294.164C389.649 294.108 389.451 293.844 389.451 293.538V289.785L392.188 290.295Z" fill="url(#paint20_linear_4134_1039)"/>
<path d="M406.97 243.812C406.97 243.812 410.349 273.834 408.471 292.597C408.471 292.597 406.22 292.597 405.093 292.221C405.093 292.221 401.582 262.866 400.448 254.467C400.405 254.151 399.953 254.135 399.891 254.449C398.491 261.516 392.989 289.229 392.334 291.845C392.334 291.845 390.456 292.595 388.955 291.845C388.955 291.845 391.957 251.69 394.209 244.56L406.97 243.812Z" fill="#1C468A"/>
<path d="M413.726 208.91C413.726 208.91 399.465 206.659 388.207 209.661L388.958 221.295C388.958 221.295 391.96 237.433 394.211 244.562C394.211 244.562 402.844 246.063 406.971 243.812C406.971 243.812 410.349 223.547 412.224 220.545C412.224 220.545 414.102 212.663 413.726 208.91Z" fill="#61C4D1"/>
<path d="M403.718 196.663L405.238 208.262C405.238 208.262 401.27 210.085 398.491 208.185L399.091 201.405L403.718 196.663Z" fill="url(#paint21_linear_4134_1039)"/>
<path d="M413.725 208.91C413.725 208.91 435.867 232.928 409.784 242.122V240.245C409.784 240.245 419.541 231.989 412.036 220.731C412.036 220.733 412.974 210.037 413.725 208.91Z" fill="#61C4D1"/>
<path d="M409.596 240.435C409.596 240.435 406.218 238.184 404.717 238.934C403.216 239.685 403.216 240.812 403.216 240.812C403.216 240.812 403.966 242.313 405.093 241.936C406.22 241.562 408.846 242.313 409.973 241.936C409.973 241.936 410.347 240.435 409.596 240.435Z" fill="url(#paint22_linear_4134_1039)"/>
<path d="M373.086 198.68L377.851 200.286C378.427 200.459 378.825 201.042 378.872 201.781L378.623 209.733C378.701 210.976 377.673 212.074 376.703 211.783L372.883 210.481C372.51 210.369 372.264 209.979 372.26 209.496L372.177 199.598C372.173 199.023 372.646 198.546 373.086 198.68Z" fill="url(#paint23_linear_4134_1039)"/>
<path d="M372.18 208.91C372.18 208.91 370.688 204.134 371.446 203.329C372.205 202.524 373.716 200.305 373.816 202.119C373.915 203.934 374.827 211.771 372.18 208.91Z" fill="url(#paint24_linear_4134_1039)"/>
<path d="M394.987 194.698C394.965 194.836 396.658 203.909 396.658 203.909L401.819 202.83L401.491 193.992C401.491 193.992 395.359 192.391 394.987 194.698Z" fill="url(#paint25_linear_4134_1039)"/>
<path d="M399.948 195.431C400.148 195.554 400.281 195.759 400.309 195.994L400.838 200.565C400.846 200.635 400.846 200.703 400.834 200.773C400.77 201.153 400.472 202.345 399.248 201.977C398.204 201.663 397.241 201.387 396.533 201.513C396.12 201.587 395.85 201.99 395.928 202.404C396.09 203.255 396.451 204.964 396.986 206.437C397.12 206.806 397.52 207.008 397.898 206.903C398.897 206.626 400.832 206.026 402.31 205.183C402.553 205.045 402.7 204.785 402.692 204.506C402.661 203.276 402.589 199.828 402.719 198.853C402.84 197.945 403.935 197.41 404.457 197.204C404.655 197.126 404.81 196.971 404.888 196.772C405.12 196.176 405.376 194.945 403.838 194.376C403.456 194.235 403.262 193.802 403.396 193.418C403.635 192.728 403.701 191.725 402.456 191.143C401.195 190.554 400.223 191.161 399.665 191.71C399.418 191.952 399.031 192.022 398.732 191.849C398.598 191.772 398.433 191.747 398.235 191.844C397.863 192.026 397.423 191.894 397.239 191.522C396.921 190.884 396.284 190.226 395.026 190.42C392.716 190.777 392.411 193.325 392.995 194.83C393.577 196.337 396.061 195.808 397.314 195.075C398.232 194.533 399.395 195.096 399.948 195.431Z" fill="url(#paint26_linear_4134_1039)"/>
<path d="M402.645 200.387C402.645 200.387 401.992 197.873 402.975 197.241C403.958 196.607 405.394 196.969 405.044 198.885C404.612 201.267 402.645 200.387 402.645 200.387Z" fill="url(#paint27_linear_4134_1039)"/>
<path d="M392.559 193.306C392.528 193.306 392.499 193.288 392.486 193.259C391.646 191.463 393.605 190.028 393.624 190.015C393.661 189.989 393.709 189.997 393.736 190.034C393.762 190.071 393.754 190.119 393.719 190.147C393.7 190.16 391.849 191.518 392.633 193.193C392.652 193.234 392.635 193.281 392.594 193.3C392.581 193.304 392.569 193.306 392.559 193.306Z" fill="white"/>
<path d="M361.586 210.712V227.116C361.586 228.452 360.771 229.536 359.766 229.536H300.01C299.176 229.536 298.447 230.292 298.245 231.369L297.172 237.08C297.031 237.837 296.24 237.901 296.03 237.171L294.649 232.346C294.38 231.407 293.705 230.787 292.948 230.787H290.381C289.376 230.787 288.562 229.703 288.562 228.367V211.505C288.562 210.177 289.366 209.097 290.365 209.085L359.753 208.292C360.763 208.28 361.586 209.368 361.586 210.712Z" fill="#EDEDF7"/>
<path d="M297.809 226.539C301.857 226.539 305.138 223.171 305.138 219.016C305.138 214.862 301.857 211.493 297.809 211.493C293.762 211.493 290.48 214.862 290.48 219.016C290.48 223.171 293.762 226.539 297.809 226.539Z" fill="#806AEA"/>
<path d="M300.464 215.968C300.464 217.319 299.369 218.778 298.017 218.778C296.665 218.778 295.569 217.319 295.569 215.968C295.569 214.616 296.665 213.658 298.017 213.658C299.369 213.658 300.464 214.616 300.464 215.968Z" fill="url(#paint28_linear_4134_1039)"/>
<path d="M294.982 223.981H300.956C301.584 223.981 302.14 223.576 302.332 222.976L302.654 221.972C302.889 221.237 302.507 220.44 301.782 220.174C299.352 219.286 296.838 219.4 294.263 220.255C293.541 220.496 293.142 221.268 293.34 222.001L293.588 222.912C293.758 223.543 294.329 223.981 294.982 223.981Z" fill="url(#paint29_linear_4134_1039)"/>
<path d="M355.877 220.979C355.877 221.765 355.214 222.401 354.396 222.401H310.781C309.962 222.401 309.299 221.765 309.299 220.979C309.299 220.194 309.962 219.558 310.781 219.558H354.396C355.214 219.558 355.877 220.196 355.877 220.979Z" fill="#806AEA"/>
<path d="M335.224 225.541C335.224 226.254 334.646 226.832 333.932 226.832H311.067C310.353 226.832 309.775 226.254 309.775 225.541C309.775 224.827 310.353 224.249 311.067 224.249H333.932C334.646 224.247 335.224 224.825 335.224 225.541Z" fill="#806AEA"/>
<path d="M355.904 225.541C355.904 226.254 355.326 226.832 354.612 226.832H338.11C337.396 226.832 336.818 226.254 336.818 225.541C336.818 224.827 337.396 224.249 338.11 224.249H354.612C355.324 224.247 355.904 224.825 355.904 225.541Z" fill="#806AEA"/>
<path d="M334.827 214.081C334.827 215.083 334.015 215.896 333.012 215.896H310.992C309.989 215.896 309.177 215.083 309.177 214.081V213.933C309.177 212.931 309.989 212.118 310.992 212.118H333.012C334.015 212.118 334.827 212.931 334.827 213.933V214.081Z" fill="#806AEA"/>
<path d="M160.969 219.558C160.955 233.978 160.845 283.715 159.982 301.323C159.891 303.189 158.578 304.659 156.981 304.684C149.084 304.812 120.141 304.936 107.248 304.017C104.562 303.825 102.481 301.23 102.494 298.082C102.56 282.947 102.911 240.385 104.75 220.923C104.971 218.592 106.579 216.767 108.576 216.577C117.191 215.763 146.297 213.947 157.429 215.039C159.437 215.239 160.971 217.202 160.969 219.558Z" fill="#413796"/>
<path d="M157.35 223.902C157.517 235.545 158 274.276 157.259 288.579C157.151 290.67 155.704 292.33 153.916 292.413C146.55 292.755 121.437 293.309 110.673 292.058C108.736 291.833 107.252 289.962 107.198 287.683C106.915 275.802 106.143 239.732 106.864 225.59C106.979 223.334 108.515 221.523 110.442 221.364C118.417 220.704 145.121 219.306 154.275 220.093C155.989 220.243 157.321 221.887 157.35 223.902Z" fill="#806AEA"/>
<path d="M138.487 217.382C138.477 217.824 138.175 218.183 137.797 218.196C135.931 218.27 130.673 218.476 128.323 218.584C127.859 218.606 127.506 218.111 127.607 217.58L127.625 217.489C127.692 217.126 127.956 216.858 128.272 216.833C129.863 216.697 134.659 216.333 137.826 216.534C138.206 216.562 138.497 216.936 138.487 217.382Z" fill="#806AEA"/>
<path d="M132.11 274.873C142.328 274.873 150.612 266.59 150.612 256.372C150.612 246.153 142.328 237.87 132.11 237.87C121.892 237.87 113.608 246.153 113.608 256.372C113.608 266.59 121.892 274.873 132.11 274.873Z" fill="url(#paint30_linear_4134_1039)"/>
<path d="M143.492 261.207C143.213 260.218 142.49 259.417 141.534 259.036L140.203 258.509C139.133 258.084 137.909 258.429 137.218 259.353L136.033 260.935C134.172 260.989 132.025 260.295 130.118 258.87C128.328 257.53 127.097 255.804 126.561 254.108C126.554 254.085 126.563 254.058 126.583 254.044C126.604 254.031 126.631 254.031 126.651 254.046L127.719 252.619C128.514 251.558 128.491 250.094 127.665 249.056L126.781 247.945C126.137 247.136 125.153 246.671 124.12 246.686C123.086 246.702 122.118 247.195 121.498 248.023C121.176 248.451 120.941 248.934 120.796 249.456C119.816 252.924 122.607 258.164 127.758 262.021C132.905 265.873 138.719 267.077 141.77 265.163C142.232 264.874 142.631 264.513 142.953 264.083C143.574 263.259 143.772 262.196 143.492 261.207Z" fill="#413796"/>
<path d="M110.09 301.457C106.975 301.457 104.397 298.922 104.397 295.808V286.153C104.397 286.041 104.483 285.948 104.597 285.948C104.712 285.948 104.797 286.039 104.797 286.153V295.808C104.797 298.695 107.196 301.046 110.084 301.046C110.196 301.046 110.293 301.137 110.293 301.251C110.291 301.366 110.202 301.457 110.09 301.457Z" fill="url(#paint31_linear_4134_1039)"/>
<path d="M79.0066 293.841C79.0066 293.841 78.6245 296.008 78.4364 298.153C78.3627 298.99 79.0085 299.718 79.8502 299.755C82.7069 299.873 88.816 300.106 91.0076 300.007C91.3372 299.991 91.5525 299.654 91.4303 299.347C91.3275 299.091 91.1317 298.882 90.8795 298.767L80.7869 294.128L79.0066 293.841Z" fill="url(#paint32_linear_4134_1039)"/>
<path d="M78.6924 292.567L79.0007 295.158C79.0007 295.158 80.7695 295.98 81.9758 295.055L81.2446 292.167L78.6924 292.567Z" fill="url(#paint33_linear_4134_1039)"/>
<path d="M78.9243 243.845C78.7924 244.522 78.2106 277.618 81.75 292.451C81.8081 292.693 81.686 292.941 81.4552 293.036C80.9121 293.257 79.8494 293.579 78.5732 293.622C78.1776 293.635 77.8246 293.378 77.7121 292.999C76.7017 289.559 71.8552 272.318 71.2229 255.846C70.517 237.444 71.2229 255.22 71.2229 255.22L71.638 243.844L78.9243 243.845Z" fill="#233862"/>
<path d="M67.3977 294.972C67.3977 294.972 66.7887 296.066 66.1992 298.973C66.0925 299.498 66.459 300.001 66.9924 300.053C67.9349 300.146 69.3875 300.265 70.5512 300.257C71.0864 300.253 71.5053 299.785 71.4413 299.254C71.3133 298.193 70.9119 296.452 69.6707 295.096L67.3977 294.972Z" fill="url(#paint34_linear_4134_1039)"/>
<path d="M66.8623 291.638L67.5799 295.557C67.5799 295.557 68.2897 296.085 69.6958 295.703L69.3525 291.487L66.8623 291.638Z" fill="url(#paint35_linear_4134_1039)"/>
<path d="M64.9214 244.86C62.0278 262.322 65.5498 288.019 66.7367 293.048C66.8084 293.356 67.0586 293.591 67.3709 293.643C67.9003 293.731 68.7731 293.802 69.6341 293.552C69.9309 293.467 70.1384 293.199 70.15 292.891C70.3091 288.824 70.022 263.862 72.7178 253.998C72.8535 253.498 73.16 253.062 73.5828 252.763L78.8152 249.043L79.2167 243.029L64.9214 244.86Z" fill="#1C468A"/>
<path d="M83.3589 211.773C74.6879 211.63 65.1209 214.05 65.1209 214.05C62.5357 229.131 64.669 246.527 64.669 246.527C71.3813 248.288 78.9546 245.451 78.9546 245.451C80.0697 239.148 85.2751 221.406 85.2751 221.406C89.5126 220.881 93.0016 219.659 95.8758 218.042C93.6843 215.501 92.6506 212.266 92.2006 210.356C89.1345 211.308 86.0334 211.818 83.3589 211.773Z" fill="#61C4D1"/>
<path d="M108.971 199.001C108.12 197.973 107.041 198.458 107.041 198.458C105.765 203.847 99.0744 208.219 92.2012 210.354C92.6492 212.266 93.6829 215.499 95.8763 218.04C107.284 211.628 108.971 199.001 108.971 199.001Z" fill="url(#paint36_linear_4134_1039)"/>
<path d="M108.763 199.263C108.852 199.546 107.82 199.978 107.211 198.818C107.19 198.264 106.853 195.884 107.184 195.43C108.951 193.022 112.378 190 112.378 190C112.958 190.572 112.481 191.133 112.481 191.133L110.819 192.864C111.166 193.493 111.591 194.022 111.788 194.783C111.94 195.359 111.847 195.973 111.556 196.497C111.265 197.023 110.865 197.705 110.489 198.24C109.779 199.255 108.763 199.263 108.763 199.263Z" fill="url(#paint37_linear_4134_1039)"/>
<path d="M110.093 193.99L108.579 195.273L108.104 196.551L109.453 198.051C109.453 198.051 109.907 195.514 110.245 194.965C110.582 194.416 110.408 194.15 110.093 193.99Z" fill="url(#paint38_linear_4134_1039)"/>
<path d="M68.4448 222.446L65.1188 214.051C65.1188 214.051 57.0199 219.555 55.6875 226.531C57.2177 226.643 59.7835 227.068 62.5084 228.443C63.7399 225.675 68.4448 222.446 68.4448 222.446Z" fill="#61C4D1"/>
<path d="M74.5761 204.734L71.8163 212.713C71.7698 212.844 71.8241 212.992 71.9482 213.058C72.7007 213.473 75.41 214.675 78.676 212.606C79.0153 212.391 79.2481 212.038 79.2985 211.638L80.1926 204.732H74.5761V204.734Z" fill="url(#paint39_linear_4134_1039)"/>
<path d="M80.5769 197.345C80.5769 197.345 83.6062 203.048 83.2183 205.351C82.8305 207.655 79.0758 207.49 75.7963 205.618L73.5059 199.461L80.5769 197.345Z" fill="url(#paint40_linear_4134_1039)"/>
<path d="M75.9418 202.595C76.0757 202.536 76.1241 202.372 76.0446 202.251C75.8022 201.881 75.3465 201.125 75.201 200.461C75.201 200.461 74.656 200.112 76.5877 199.651C78.5193 199.189 81.3974 198.471 82.0025 196.827C82.592 195.225 81.0425 191.195 78.5678 194.406C78.4728 194.529 78.2885 194.531 78.1954 194.408C77.7901 193.881 76.7234 192.785 75.2437 193.448C73.8589 194.069 73.7018 195.085 73.7212 195.597C73.7271 195.749 73.5932 195.865 73.4439 195.836C72.7438 195.702 71.0623 195.588 70.2788 197.312C69.633 198.731 70.0519 199.536 70.4359 199.928C70.56 200.056 70.5057 200.265 70.3351 200.318C69.8754 200.459 69.28 200.849 69.3402 201.927C69.4216 203.419 71.0895 203.287 71.5627 203.219C71.6403 203.207 71.7178 203.235 71.7721 203.293C72.1794 203.743 74.0121 205.655 75.9961 205.886C76.1688 205.905 76.3006 205.736 76.2444 205.572L75.3852 203.076C75.3445 202.959 75.4008 202.833 75.5132 202.783L75.9418 202.595Z" fill="url(#paint41_linear_4134_1039)"/>
<path d="M76.2869 202.949C76.2869 202.949 74.1303 201.47 73.9712 202.715C73.8141 203.962 75.9145 204.52 76.954 204.055L76.2869 202.949Z" fill="url(#paint42_linear_4134_1039)"/>
<path d="M55.7438 226.598C55.7438 226.598 50.2088 239.206 63.7399 241.053L65.5843 239.515C65.5843 239.515 58.8177 235.824 62.5084 228.443C62.5103 228.443 58.5113 225.061 55.7438 226.598Z" fill="url(#paint43_linear_4134_1039)"/>
<path d="M65.4623 233.235L70.2274 234.841C70.8034 235.013 71.201 235.597 71.2475 236.336L70.9993 244.288C71.0769 245.531 70.0509 246.628 69.0793 246.338L65.2587 245.036C64.8863 244.924 64.64 244.534 64.6362 244.051L64.5528 234.152C64.5489 233.58 65.0221 233.103 65.4623 233.235Z" fill="url(#paint44_linear_4134_1039)"/>
<path d="M64.2316 242.663C64.1036 242.521 63.2115 240.89 63.4422 238.71C63.6711 236.53 63.2464 235.547 64.2626 235.63C65.2789 235.716 66.1205 235.886 66.0042 236.959C65.8898 238.031 66.2098 244.848 64.2316 242.663Z" fill="url(#paint45_linear_4134_1039)"/>
<path d="M492.425 301.014H0.574743C0.257942 301.014 0 300.732 0 300.385V300.128C0 299.781 0.257942 299.499 0.574743 299.499H492.425C492.742 299.499 493 299.781 493 300.128V300.385C493 300.732 492.742 301.014 492.425 301.014Z" fill="#3F3793"/>
<defs>
<linearGradient id="paint0_linear_4134_1039" x1="263.522" y1="185.324" x2="362.551" y2="285.301" gradientUnits="userSpaceOnUse">
<stop stop-color="#09005D"/>
<stop offset="1" stop-color="#1A0F91"/>
</linearGradient>
<linearGradient id="paint1_linear_4134_1039" x1="315.402" y1="307.785" x2="309.066" y2="279.082" gradientUnits="userSpaceOnUse">
<stop stop-color="#FF928E"/>
<stop offset="1" stop-color="#FEB3B1"/>
</linearGradient>
<linearGradient id="paint2_linear_4134_1039" x1="326.535" y1="239.025" x2="311.666" y2="275.227" gradientUnits="userSpaceOnUse">
<stop stop-color="#FF928E"/>
<stop offset="1" stop-color="#FEB3B1"/>
</linearGradient>
<linearGradient id="paint3_linear_4134_1039" x1="319.545" y1="276.578" x2="334.957" y2="306.723" gradientUnits="userSpaceOnUse">
<stop stop-color="#09005D"/>
<stop offset="1" stop-color="#1A0F91"/>
</linearGradient>
<linearGradient id="paint4_linear_4134_1039" x1="271.312" y1="114.193" x2="273.125" y2="130.059" gradientUnits="userSpaceOnUse">
<stop stop-color="#4042E2"/>
<stop offset="1" stop-color="#4F52FF"/>
</linearGradient>
<linearGradient id="paint5_linear_4134_1039" x1="315.704" y1="243.469" x2="322.04" y2="258.984" gradientUnits="userSpaceOnUse">
<stop stop-color="#FF928E"/>
<stop offset="1" stop-color="#FEB3B1"/>
</linearGradient>
<linearGradient id="paint6_linear_4134_1039" x1="-441.741" y1="321.503" x2="-431.785" y2="320.469" gradientUnits="userSpaceOnUse">
<stop stop-color="#FF928E"/>
<stop offset="1" stop-color="#FEB3B1"/>
</linearGradient>
<linearGradient id="paint7_linear_4134_1039" x1="264.912" y1="183.947" x2="363.941" y2="283.924" gradientUnits="userSpaceOnUse">
<stop stop-color="#09005D"/>
<stop offset="1" stop-color="#1A0F91"/>
</linearGradient>
<linearGradient id="paint8_linear_4134_1039" x1="-441.558" y1="323.307" x2="-431.602" y2="322.272" gradientUnits="userSpaceOnUse">
<stop stop-color="#FF928E"/>
<stop offset="1" stop-color="#FEB3B1"/>
</linearGradient>
<linearGradient id="paint9_linear_4134_1039" x1="350.294" y1="273.534" x2="319.781" y2="270.819" gradientUnits="userSpaceOnUse">
<stop stop-color="#FF928E"/>
<stop offset="1" stop-color="#FEB3B1"/>
</linearGradient>
<linearGradient id="paint10_linear_4134_1039" x1="327.507" y1="268.898" x2="312.031" y2="273.974" gradientUnits="userSpaceOnUse">
<stop stop-color="#09005D"/>
<stop offset="1" stop-color="#1A0F91"/>
</linearGradient>
<linearGradient id="paint11_linear_4134_1039" x1="289.239" y1="272.773" x2="306.694" y2="260.749" gradientUnits="userSpaceOnUse">
<stop stop-color="#09005D"/>
<stop offset="1" stop-color="#1A0F91"/>
</linearGradient>
<linearGradient id="paint12_linear_4134_1039" x1="268.377" y1="275.739" x2="351.465" y2="275.739" gradientUnits="userSpaceOnUse">
<stop stop-color="#DAE3FE"/>
<stop offset="1" stop-color="#E9EFFD"/>
</linearGradient>
<linearGradient id="paint13_linear_4134_1039" x1="273.15" y1="293.95" x2="289.552" y2="293.95" gradientUnits="userSpaceOnUse">
<stop stop-color="#DAE3FE"/>
<stop offset="1" stop-color="#E9EFFD"/>
</linearGradient>
<linearGradient id="paint14_linear_4134_1039" x1="275.045" y1="293.95" x2="291.447" y2="293.95" gradientUnits="userSpaceOnUse">
<stop stop-color="#DAE3FE"/>
<stop offset="1" stop-color="#E9EFFD"/>
</linearGradient>
<linearGradient id="paint15_linear_4134_1039" x1="332.115" y1="293.95" x2="348.517" y2="293.95" gradientUnits="userSpaceOnUse">
<stop stop-color="#DAE3FE"/>
<stop offset="1" stop-color="#E9EFFD"/>
</linearGradient>
<linearGradient id="paint16_linear_4134_1039" x1="334.009" y1="293.95" x2="350.411" y2="293.95" gradientUnits="userSpaceOnUse">
<stop stop-color="#DAE3FE"/>
<stop offset="1" stop-color="#E9EFFD"/>
</linearGradient>
<linearGradient id="paint17_linear_4134_1039" x1="422.833" y1="286.776" x2="395.109" y2="308.545" gradientUnits="userSpaceOnUse">
<stop stop-color="#09005D"/>
<stop offset="1" stop-color="#1A0F91"/>
</linearGradient>
<linearGradient id="paint18_linear_4134_1039" x1="406.312" y1="287.109" x2="407.817" y2="300.242" gradientUnits="userSpaceOnUse">
<stop stop-color="#FF928E"/>
<stop offset="1" stop-color="#FEB3B1"/>
</linearGradient>
<linearGradient id="paint19_linear_4134_1039" x1="380.764" y1="293.237" x2="407.574" y2="314.287" gradientUnits="userSpaceOnUse">
<stop stop-color="#09005D"/>
<stop offset="1" stop-color="#1A0F91"/>
</linearGradient>
<linearGradient id="paint20_linear_4134_1039" x1="390.459" y1="288.789" x2="391.867" y2="301.074" gradientUnits="userSpaceOnUse">
<stop stop-color="#FF928E"/>
<stop offset="1" stop-color="#FEB3B1"/>
</linearGradient>
<linearGradient id="paint21_linear_4134_1039" x1="402.144" y1="195.758" x2="401.756" y2="213.083" gradientUnits="userSpaceOnUse">
<stop stop-color="#FF928E"/>
<stop offset="1" stop-color="#FEB3B1"/>
</linearGradient>
<linearGradient id="paint22_linear_4134_1039" x1="403.597" y1="238.289" x2="415.606" y2="248.547" gradientUnits="userSpaceOnUse">
<stop stop-color="#FF928E"/>
<stop offset="1" stop-color="#FEB3B1"/>
</linearGradient>
<linearGradient id="paint23_linear_4134_1039" x1="378.958" y1="202.354" x2="372.335" y2="205.152" gradientUnits="userSpaceOnUse">
<stop stop-color="#09005D"/>
<stop offset="1" stop-color="#1A0F91"/>
</linearGradient>
<linearGradient id="paint24_linear_4134_1039" x1="372.425" y1="201.487" x2="372.921" y2="209.548" gradientUnits="userSpaceOnUse">
<stop stop-color="#FF928E"/>
<stop offset="1" stop-color="#FEB3B1"/>
</linearGradient>
<linearGradient id="paint25_linear_4134_1039" x1="412.088" y1="194.827" x2="394.633" y2="199.352" gradientUnits="userSpaceOnUse">
<stop stop-color="#FF928E"/>
<stop offset="1" stop-color="#FEB3B1"/>
</linearGradient>
<linearGradient id="paint26_linear_4134_1039" x1="404.476" y1="199.699" x2="391.99" y2="197.684" gradientUnits="userSpaceOnUse">
<stop stop-color="#09005D"/>
<stop offset="1" stop-color="#1A0F91"/>
</linearGradient>
<linearGradient id="paint27_linear_4134_1039" x1="410.362" y1="208.312" x2="403.511" y2="198.565" gradientUnits="userSpaceOnUse">
<stop stop-color="#FF928E"/>
<stop offset="1" stop-color="#FEB3B1"/>
</linearGradient>
<linearGradient id="paint28_linear_4134_1039" x1="295.571" y1="216.218" x2="300.465" y2="216.218" gradientUnits="userSpaceOnUse">
<stop stop-color="#DAE3FE"/>
<stop offset="1" stop-color="#E9EFFD"/>
</linearGradient>
<linearGradient id="paint29_linear_4134_1039" x1="293.288" y1="221.769" x2="302.722" y2="221.769" gradientUnits="userSpaceOnUse">
<stop stop-color="#DAE3FE"/>
<stop offset="1" stop-color="#E9EFFD"/>
</linearGradient>
<linearGradient id="paint30_linear_4134_1039" x1="113.608" y1="256.371" x2="150.613" y2="256.371" gradientUnits="userSpaceOnUse">
<stop stop-color="#DAE3FE"/>
<stop offset="1" stop-color="#E9EFFD"/>
</linearGradient>
<linearGradient id="paint31_linear_4134_1039" x1="104.397" y1="293.703" x2="110.291" y2="293.703" gradientUnits="userSpaceOnUse">
<stop stop-color="#4042E2"/>
<stop offset="1" stop-color="#4F52FF"/>
</linearGradient>
<linearGradient id="paint32_linear_4134_1039" x1="90.6875" y1="290.846" x2="53.7318" y2="331.044" gradientUnits="userSpaceOnUse">
<stop stop-color="#09005D"/>
<stop offset="1" stop-color="#1A0F91"/>
</linearGradient>
<linearGradient id="paint33_linear_4134_1039" x1="78.6922" y1="293.832" x2="81.9747" y2="293.832" gradientUnits="userSpaceOnUse">
<stop stop-color="#FF928E"/>
<stop offset="1" stop-color="#FEB3B1"/>
</linearGradient>
<linearGradient id="paint34_linear_4134_1039" x1="82.3973" y1="283.225" x2="45.442" y2="323.422" gradientUnits="userSpaceOnUse">
<stop stop-color="#09005D"/>
<stop offset="1" stop-color="#1A0F91"/>
</linearGradient>
<linearGradient id="paint35_linear_4134_1039" x1="66.862" y1="293.663" x2="69.6962" y2="293.663" gradientUnits="userSpaceOnUse">
<stop stop-color="#FF928E"/>
<stop offset="1" stop-color="#FEB3B1"/>
</linearGradient>
<linearGradient id="paint36_linear_4134_1039" x1="92.2009" y1="208.193" x2="108.971" y2="208.193" gradientUnits="userSpaceOnUse">
<stop stop-color="#FF928E"/>
<stop offset="1" stop-color="#FEB3B1"/>
</linearGradient>
<linearGradient id="paint37_linear_4134_1039" x1="105.234" y1="205.382" x2="93.9812" y2="230.986" gradientUnits="userSpaceOnUse">
<stop stop-color="#FF928E"/>
<stop offset="1" stop-color="#FEB3B1"/>
</linearGradient>
<linearGradient id="paint38_linear_4134_1039" x1="94.6447" y1="213.086" x2="119.081" y2="185.159" gradientUnits="userSpaceOnUse">
<stop stop-color="#FF928E"/>
<stop offset="1" stop-color="#FEB3B1"/>
</linearGradient>
<linearGradient id="paint39_linear_4134_1039" x1="76.0052" y1="208.769" x2="72.5143" y2="235.145" gradientUnits="userSpaceOnUse">
<stop stop-color="#FF928E"/>
<stop offset="1" stop-color="#FEB3B1"/>
</linearGradient>
<linearGradient id="paint40_linear_4134_1039" x1="693.507" y1="423.763" x2="670.491" y2="415.452" gradientUnits="userSpaceOnUse">
<stop stop-color="#FF928E"/>
<stop offset="1" stop-color="#FEB3B1"/>
</linearGradient>
<linearGradient id="paint41_linear_4134_1039" x1="67.6557" y1="-662.148" x2="67.2887" y2="-701.277" gradientUnits="userSpaceOnUse">
<stop stop-color="#09005D"/>
<stop offset="1" stop-color="#1A0F91"/>
</linearGradient>
<linearGradient id="paint42_linear_4134_1039" x1="692.634" y1="426.18" x2="669.619" y2="417.87" gradientUnits="userSpaceOnUse">
<stop stop-color="#FF928E"/>
<stop offset="1" stop-color="#FEB3B1"/>
</linearGradient>
<linearGradient id="paint43_linear_4134_1039" x1="72.8255" y1="243.814" x2="55.5501" y2="229.994" gradientUnits="userSpaceOnUse">
<stop stop-color="#FF928E"/>
<stop offset="1" stop-color="#FEB3B1"/>
</linearGradient>
<linearGradient id="paint44_linear_4134_1039" x1="71.3342" y1="236.91" x2="64.7112" y2="239.708" gradientUnits="userSpaceOnUse">
<stop stop-color="#09005D"/>
<stop offset="1" stop-color="#1A0F91"/>
</linearGradient>
<linearGradient id="paint45_linear_4134_1039" x1="66.7671" y1="237.657" x2="63.5654" y2="240.047" gradientUnits="userSpaceOnUse">
<stop stop-color="#FF928E"/>
<stop offset="1" stop-color="#FEB3B1"/>
</linearGradient>
</defs>
</svg>
